<svg width="93" height="82" viewBox="0 0 93 82" fill="none" xmlns="http://www.w3.org/2000/svg">
<mask id="mask0_308_438" style="mask-type:luminance" maskUnits="userSpaceOnUse" x="0" y="25" width="33" height="57">
<path d="M26.0594 81.8323H0.34375L23.4361 41.3414L32.5484 25.3619L29.3915 52.859L26.0594 81.8323Z" fill="white"/>
</mask>
<g mask="url(#mask0_308_438)">
<path d="M32.5484 25.3619H0.34375V81.8323H32.5484V25.3619Z" fill="url(#paint0_linear_308_438)"/>
</g>
<mask id="mask1_308_438" style="mask-type:luminance" maskUnits="userSpaceOnUse" x="28" y="59" width="65" height="23">
<path d="M79.7965 59.1848L92.7134 81.8323H46.5286H28.0107L53.2295 70.8013L79.7965 59.1848Z" fill="white"/>
</mask>
<g mask="url(#mask1_308_438)">
<path d="M92.7134 59.1848H28.0107V81.8323H92.7134V59.1848Z" fill="url(#paint1_linear_308_438)"/>
</g>
<mask id="mask2_308_438" style="mask-type:luminance" maskUnits="userSpaceOnUse" x="33" y="0" width="46" height="58">
<path d="M46.5286 0.850365L69.621 41.3413L78.9614 57.7208L56.6593 40.9331L33.5791 23.5557L46.5286 0.850365Z" fill="white"/>
</mask>
<g mask="url(#mask2_308_438)">
<path d="M78.9614 0.850365H33.5791V57.7208H78.9614V0.850365Z" fill="url(#paint2_linear_308_438)"/>
</g>
<mask id="mask3_308_438" style="mask-type:luminance" maskUnits="userSpaceOnUse" x="0" y="25" width="33" height="57">
<path d="M13.2036 81.8323H0.34375L23.4361 41.3414L32.5484 25.3619L13.2036 81.8323Z" fill="white"/>
</mask>
<g mask="url(#mask3_308_438)">
<path d="M32.5484 25.3619H0.34375V81.8323H32.5484V25.3619Z" fill="url(#paint3_linear_308_438)"/>
</g>
<mask id="mask4_308_438" style="mask-type:luminance" maskUnits="userSpaceOnUse" x="28" y="70" width="65" height="12">
<path d="M86.2529 70.5085L92.7134 81.8323H28.0107L86.2529 70.5085Z" fill="white"/>
</mask>
<g mask="url(#mask4_308_438)">
<path d="M92.7134 70.5085H28.0107V81.8323H92.7134V70.5085Z" fill="url(#paint4_linear_308_438)"/>
</g>
<mask id="mask5_308_438" style="mask-type:luminance" maskUnits="userSpaceOnUse" x="40" y="0" width="39" height="58">
<path d="M46.5295 0.850388L78.9623 57.7209L40.0527 12.203L46.5295 0.850388Z" fill="white"/>
</mask>
<g mask="url(#mask5_308_438)">
<path d="M78.9582 0.850388H40.0527V57.7209H78.9582V0.850388Z" fill="url(#paint5_linear_308_438)"/>
</g>
<defs>
<linearGradient id="paint0_linear_308_438" x1="23.986" y1="33.9186" x2="7.57037" y2="75.7295" gradientUnits="userSpaceOnUse">
<stop stop-color="#53489C"/>
<stop offset="1" stop-color="#A99CCB"/>
</linearGradient>
<linearGradient id="paint1_linear_308_438" x1="70.1058" y1="53.9847" x2="49.3679" y2="88.3012" gradientUnits="userSpaceOnUse">
<stop stop-color="#64C9DC"/>
<stop offset="1" stop-color="#324DA0"/>
</linearGradient>
<linearGradient id="paint2_linear_308_438" x1="41.3838" y1="13.5185" x2="77.2404" y2="50.5761" gradientUnits="userSpaceOnUse">
<stop stop-color="#189C49"/>
<stop offset="1" stop-color="#B7D333"/>
</linearGradient>
<linearGradient id="paint3_linear_308_438" x1="0.213398" y1="75.1601" x2="31.3352" y2="34.8188" gradientUnits="userSpaceOnUse">
<stop stop-color="#53489C"/>
<stop offset="1" stop-color="#A99CCB"/>
</linearGradient>
<linearGradient id="paint4_linear_308_438" x1="53.3109" y1="90.1582" x2="66.8632" y2="63.9256" gradientUnits="userSpaceOnUse">
<stop stop-color="#64C9DC"/>
<stop offset="1" stop-color="#324DA0"/>
</linearGradient>
<linearGradient id="paint5_linear_308_438" x1="59.3609" y1="56.327" x2="59.6698" y2="0.875172" gradientUnits="userSpaceOnUse">
<stop stop-color="#189C49"/>
<stop offset="1" stop-color="#B7D333"/>
</linearGradient>
</defs>
</svg>
